<svg width="173" height="40" viewBox="0 0 173 40" fill="none" xmlns="http://www.w3.org/2000/svg">
<g clip-path="url(#clip0)">
<path d="M19.4444 25.04V32.52M19.4444 25.04H13.8889M19.4444 25.04H25M13.8889 25.04L7.22222 34M13.8889 25.04H9C6.79086 25.04 5 23.2491 5 21.04V10C5 7.79087 6.79086 6 9 6H31C33.2091 6 35 7.79086 35 10V21.04C35 23.2491 33.2091 25.04 31 25.04H25M25 25.04L32.7778 34" stroke="white" stroke-width="3" stroke-linecap="round"/>
</g>
<path d="M65.608 11.536H72.424C74.936 11.536 76.872 12.224 78.232 13.6C79.608 14.96 80.296 17.016 80.296 19.768C80.296 22.52 79.608 24.584 78.232 25.96C76.872 27.32 74.936 28 72.424 28H65.608V11.536ZM72.424 25.048C73.832 25.048 74.896 24.624 75.616 23.776C76.352 22.912 76.72 21.696 76.72 20.128V19.408C76.72 17.84 76.352 16.632 75.616 15.784C74.896 14.92 73.832 14.488 72.424 14.488H69.088V25.048H72.424ZM85.9283 28.288C84.9523 28.288 84.0563 28.032 83.2403 27.52C82.4243 27.008 82.0163 26.08 82.0163 24.736C82.0163 23.12 82.6803 21.976 84.0083 21.304C85.3363 20.616 87.2163 20.272 89.6483 20.272V19.384C89.6483 18.824 89.5203 18.392 89.2643 18.088C89.0243 17.784 88.5603 17.632 87.8723 17.632C87.1363 17.632 86.6083 17.744 86.2883 17.968C85.9843 18.192 85.8323 18.456 85.8323 18.76V19.12H82.6643C82.6483 19.024 82.6403 18.848 82.6403 18.592C82.6403 17.536 83.1043 16.688 84.0323 16.048C84.9763 15.408 86.2243 15.088 87.7763 15.088C89.5043 15.088 90.7923 15.44 91.6403 16.144C92.5043 16.848 92.9363 17.864 92.9363 19.192V24.76C92.9363 25.048 93.0163 25.264 93.1763 25.408C93.3363 25.536 93.5363 25.6 93.7763 25.6H94.4483V27.904C93.9363 28.16 93.3043 28.288 92.5523 28.288C91.8963 28.288 91.3443 28.144 90.8963 27.856C90.4643 27.568 90.1683 27.16 90.0083 26.632H89.8643C89.4003 27.176 88.8643 27.592 88.2563 27.88C87.6643 28.152 86.8883 28.288 85.9283 28.288ZM86.9603 25.696C87.8883 25.696 88.5683 25.44 89.0003 24.928C89.4323 24.4 89.6483 23.704 89.6483 22.84V22.456C86.7843 22.456 85.3523 23.096 85.3523 24.376C85.3523 24.776 85.4803 25.096 85.7363 25.336C86.0083 25.576 86.4163 25.696 86.9603 25.696ZM96.3603 15.376H99.1683L99.4323 17.416H99.6003C99.8723 16.696 100.224 16.128 100.656 15.712C101.088 15.296 101.656 15.088 102.36 15.088C102.824 15.088 103.24 15.16 103.608 15.304V18.376H102.696C101.624 18.376 100.848 18.672 100.368 19.264C99.8883 19.84 99.6483 20.72 99.6483 21.904V28H96.3603V15.376ZM115.272 28.288C114.296 28.288 113.4 28.032 112.584 27.52C111.768 27.008 111.36 26.08 111.36 24.736C111.36 23.12 112.024 21.976 113.352 21.304C114.68 20.616 116.56 20.272 118.992 20.272V19.384C118.992 18.824 118.864 18.392 118.608 18.088C118.368 17.784 117.904 17.632 117.216 17.632C116.48 17.632 115.952 17.744 115.632 17.968C115.328 18.192 115.176 18.456 115.176 18.76V19.12H112.008C111.992 19.024 111.984 18.848 111.984 18.592C111.984 17.536 112.448 16.688 113.376 16.048C114.32 15.408 115.568 15.088 117.12 15.088C118.848 15.088 120.136 15.44 120.984 16.144C121.848 16.848 122.28 17.864 122.28 19.192V24.76C122.28 25.048 122.36 25.264 122.52 25.408C122.68 25.536 122.88 25.6 123.12 25.6H123.792V27.904C123.28 28.16 122.648 28.288 121.896 28.288C121.24 28.288 120.688 28.144 120.24 27.856C119.808 27.568 119.512 27.16 119.352 26.632H119.208C118.744 27.176 118.208 27.592 117.6 27.88C117.008 28.152 116.232 28.288 115.272 28.288ZM116.304 25.696C117.232 25.696 117.912 25.44 118.344 24.928C118.776 24.4 118.992 23.704 118.992 22.84V22.456C116.128 22.456 114.696 23.096 114.696 24.376C114.696 24.776 114.824 25.096 115.08 25.336C115.352 25.576 115.76 25.696 116.304 25.696ZM129.808 28.288C128.512 28.288 127.488 27.936 126.736 27.232C126 26.528 125.632 25.4 125.632 23.848V15.376H128.92V23.152C128.92 23.936 129.104 24.504 129.472 24.856C129.84 25.208 130.384 25.384 131.104 25.384C131.84 25.384 132.448 25.128 132.928 24.616C133.424 24.088 133.672 23.44 133.672 22.672V15.376H136.96V28H134.152L133.912 26.344H133.744C132.72 27.64 131.408 28.288 129.808 28.288ZM140.376 10.648H143.664V28H140.376V10.648ZM149.96 28.288C148.984 28.288 148.088 28.032 147.272 27.52C146.456 27.008 146.048 26.08 146.048 24.736C146.048 23.12 146.712 21.976 148.04 21.304C149.368 20.616 151.248 20.272 153.68 20.272V19.384C153.68 18.824 153.552 18.392 153.296 18.088C153.056 17.784 152.592 17.632 151.904 17.632C151.168 17.632 150.64 17.744 150.32 17.968C150.016 18.192 149.864 18.456 149.864 18.76V19.12H146.696C146.68 19.024 146.672 18.848 146.672 18.592C146.672 17.536 147.136 16.688 148.064 16.048C149.008 15.408 150.256 15.088 151.808 15.088C153.536 15.088 154.824 15.44 155.672 16.144C156.536 16.848 156.968 17.864 156.968 19.192V24.76C156.968 25.048 157.048 25.264 157.208 25.408C157.368 25.536 157.568 25.6 157.808 25.6H158.48V27.904C157.968 28.16 157.336 28.288 156.584 28.288C155.928 28.288 155.376 28.144 154.928 27.856C154.496 27.568 154.2 27.16 154.04 26.632H153.896C153.432 27.176 152.896 27.592 152.288 27.88C151.696 28.152 150.92 28.288 149.96 28.288ZM150.992 25.696C151.92 25.696 152.6 25.44 153.032 24.928C153.464 24.4 153.68 23.704 153.68 22.84V22.456C150.816 22.456 149.384 23.096 149.384 24.376C149.384 24.776 149.512 25.096 149.768 25.336C150.04 25.576 150.448 25.696 150.992 25.696ZM165.432 28.288C163.672 28.288 162.288 27.928 161.28 27.208C160.288 26.472 159.792 25.496 159.792 24.28L159.816 23.992H163.008V24.16C163.024 24.72 163.272 25.128 163.752 25.384C164.248 25.624 164.848 25.744 165.552 25.744C166.208 25.744 166.768 25.656 167.232 25.48C167.696 25.304 167.928 25.016 167.928 24.616C167.928 24.168 167.688 23.832 167.208 23.608C166.744 23.384 166.008 23.16 165 22.936C163.96 22.696 163.112 22.456 162.456 22.216C161.8 21.96 161.232 21.568 160.752 21.04C160.272 20.512 160.032 19.808 160.032 18.928C160.032 17.696 160.544 16.752 161.568 16.096C162.608 15.424 163.944 15.088 165.576 15.088C167.096 15.088 168.352 15.4 169.344 16.024C170.336 16.632 170.832 17.464 170.832 18.52L170.807 19.072H167.616V18.928C167.616 18.512 167.416 18.192 167.016 17.968C166.632 17.744 166.112 17.632 165.456 17.632C164.8 17.632 164.28 17.72 163.896 17.896C163.512 18.072 163.32 18.32 163.32 18.64C163.32 19.04 163.536 19.336 163.968 19.528C164.416 19.72 165.128 19.912 166.104 20.104C167.176 20.344 168.048 20.584 168.72 20.824C169.392 21.064 169.976 21.456 170.472 22C170.968 22.544 171.216 23.28 171.216 24.208C171.216 26.928 169.288 28.288 165.432 28.288Z" fill="white"/>
<defs>
<clipPath id="clip0">
<rect width="40" height="40" rx="8" fill="white"/>
</clipPath>
</defs>
</svg>
