<svg width="301" height="104" viewBox="0 0 301 104" fill="none" xmlns="http://www.w3.org/2000/svg">
<rect width="301" height="104" rx="8" fill="#04D361"/>
<g clip-path="url(#clip0)">
<path d="M83.4444 57.04V64.52M83.4444 57.04H77.8889M83.4444 57.04H89M77.8889 57.04L71.2222 66M77.8889 57.04H73C70.7909 57.04 69 55.2491 69 53.04V42C69 39.7909 70.7909 38 73 38H95C97.2091 38 99 39.7909 99 42V53.04C99 55.2491 97.2091 57.04 95 57.04H89M89 57.04L96.7778 66" stroke="white" stroke-width="3" stroke-linecap="round"/>
</g>
<path d="M129.608 43.536H136.424C138.936 43.536 140.872 44.224 142.232 45.6C143.608 46.96 144.296 49.016 144.296 51.768C144.296 54.52 143.608 56.584 142.232 57.96C140.872 59.32 138.936 60 136.424 60H129.608V43.536ZM136.424 57.048C137.832 57.048 138.896 56.624 139.616 55.776C140.352 54.912 140.72 53.696 140.72 52.128V51.408C140.72 49.84 140.352 48.632 139.616 47.784C138.896 46.92 137.832 46.488 136.424 46.488H133.088V57.048H136.424ZM149.928 60.288C148.952 60.288 148.056 60.032 147.24 59.52C146.424 59.008 146.016 58.08 146.016 56.736C146.016 55.12 146.68 53.976 148.008 53.304C149.336 52.616 151.216 52.272 153.648 52.272V51.384C153.648 50.824 153.52 50.392 153.264 50.088C153.024 49.784 152.56 49.632 151.872 49.632C151.136 49.632 150.608 49.744 150.288 49.968C149.984 50.192 149.832 50.456 149.832 50.76V51.12H146.664C146.648 51.024 146.64 50.848 146.64 50.592C146.64 49.536 147.104 48.688 148.032 48.048C148.976 47.408 150.224 47.088 151.776 47.088C153.504 47.088 154.792 47.44 155.64 48.144C156.504 48.848 156.936 49.864 156.936 51.192V56.76C156.936 57.048 157.016 57.264 157.176 57.408C157.336 57.536 157.536 57.6 157.776 57.6H158.448V59.904C157.936 60.16 157.304 60.288 156.552 60.288C155.896 60.288 155.344 60.144 154.896 59.856C154.464 59.568 154.168 59.16 154.008 58.632H153.864C153.4 59.176 152.864 59.592 152.256 59.88C151.664 60.152 150.888 60.288 149.928 60.288ZM150.96 57.696C151.888 57.696 152.568 57.44 153 56.928C153.432 56.4 153.648 55.704 153.648 54.84V54.456C150.784 54.456 149.352 55.096 149.352 56.376C149.352 56.776 149.48 57.096 149.736 57.336C150.008 57.576 150.416 57.696 150.96 57.696ZM160.36 47.376H163.168L163.432 49.416H163.6C163.872 48.696 164.224 48.128 164.656 47.712C165.088 47.296 165.656 47.088 166.36 47.088C166.824 47.088 167.24 47.16 167.608 47.304V50.376H166.696C165.624 50.376 164.848 50.672 164.368 51.264C163.888 51.84 163.648 52.72 163.648 53.904V60H160.36V47.376ZM179.272 60.288C178.296 60.288 177.4 60.032 176.584 59.52C175.768 59.008 175.36 58.08 175.36 56.736C175.36 55.12 176.024 53.976 177.352 53.304C178.68 52.616 180.56 52.272 182.992 52.272V51.384C182.992 50.824 182.864 50.392 182.608 50.088C182.368 49.784 181.904 49.632 181.216 49.632C180.48 49.632 179.952 49.744 179.632 49.968C179.328 50.192 179.176 50.456 179.176 50.76V51.12H176.008C175.992 51.024 175.984 50.848 175.984 50.592C175.984 49.536 176.448 48.688 177.376 48.048C178.32 47.408 179.568 47.088 181.12 47.088C182.848 47.088 184.136 47.44 184.984 48.144C185.848 48.848 186.28 49.864 186.28 51.192V56.76C186.28 57.048 186.36 57.264 186.52 57.408C186.68 57.536 186.88 57.6 187.12 57.6H187.792V59.904C187.28 60.16 186.648 60.288 185.896 60.288C185.24 60.288 184.688 60.144 184.24 59.856C183.808 59.568 183.512 59.16 183.352 58.632H183.208C182.744 59.176 182.208 59.592 181.6 59.88C181.008 60.152 180.232 60.288 179.272 60.288ZM180.304 57.696C181.232 57.696 181.912 57.44 182.344 56.928C182.776 56.4 182.992 55.704 182.992 54.84V54.456C180.128 54.456 178.696 55.096 178.696 56.376C178.696 56.776 178.824 57.096 179.08 57.336C179.352 57.576 179.76 57.696 180.304 57.696ZM193.808 60.288C192.512 60.288 191.488 59.936 190.736 59.232C190 58.528 189.632 57.4 189.632 55.848V47.376H192.92V55.152C192.92 55.936 193.104 56.504 193.472 56.856C193.84 57.208 194.384 57.384 195.104 57.384C195.84 57.384 196.448 57.128 196.928 56.616C197.424 56.088 197.672 55.44 197.672 54.672V47.376H200.96V60H198.152L197.912 58.344H197.744C196.72 59.64 195.408 60.288 193.808 60.288ZM204.376 42.648H207.664V60H204.376V42.648ZM213.96 60.288C212.984 60.288 212.088 60.032 211.272 59.52C210.456 59.008 210.048 58.08 210.048 56.736C210.048 55.12 210.712 53.976 212.04 53.304C213.368 52.616 215.248 52.272 217.68 52.272V51.384C217.68 50.824 217.552 50.392 217.296 50.088C217.056 49.784 216.592 49.632 215.904 49.632C215.168 49.632 214.64 49.744 214.32 49.968C214.016 50.192 213.864 50.456 213.864 50.76V51.12H210.696C210.68 51.024 210.672 50.848 210.672 50.592C210.672 49.536 211.136 48.688 212.064 48.048C213.008 47.408 214.256 47.088 215.808 47.088C217.536 47.088 218.824 47.44 219.672 48.144C220.536 48.848 220.968 49.864 220.968 51.192V56.76C220.968 57.048 221.048 57.264 221.208 57.408C221.368 57.536 221.568 57.6 221.808 57.6H222.48V59.904C221.968 60.16 221.336 60.288 220.584 60.288C219.928 60.288 219.376 60.144 218.928 59.856C218.496 59.568 218.2 59.16 218.04 58.632H217.896C217.432 59.176 216.896 59.592 216.288 59.88C215.696 60.152 214.92 60.288 213.96 60.288ZM214.992 57.696C215.92 57.696 216.6 57.44 217.032 56.928C217.464 56.4 217.68 55.704 217.68 54.84V54.456C214.816 54.456 213.384 55.096 213.384 56.376C213.384 56.776 213.512 57.096 213.768 57.336C214.04 57.576 214.448 57.696 214.992 57.696ZM229.432 60.288C227.672 60.288 226.288 59.928 225.28 59.208C224.288 58.472 223.792 57.496 223.792 56.28L223.816 55.992H227.008V56.16C227.024 56.72 227.272 57.128 227.752 57.384C228.248 57.624 228.848 57.744 229.552 57.744C230.208 57.744 230.768 57.656 231.232 57.48C231.696 57.304 231.928 57.016 231.928 56.616C231.928 56.168 231.688 55.832 231.208 55.608C230.744 55.384 230.008 55.16 229 54.936C227.96 54.696 227.112 54.456 226.456 54.216C225.8 53.96 225.232 53.568 224.752 53.04C224.272 52.512 224.032 51.808 224.032 50.928C224.032 49.696 224.544 48.752 225.568 48.096C226.608 47.424 227.944 47.088 229.576 47.088C231.096 47.088 232.352 47.4 233.344 48.024C234.336 48.632 234.832 49.464 234.832 50.52L234.807 51.072H231.616V50.928C231.616 50.512 231.416 50.192 231.016 49.968C230.632 49.744 230.112 49.632 229.456 49.632C228.8 49.632 228.28 49.72 227.896 49.896C227.512 50.072 227.32 50.32 227.32 50.64C227.32 51.04 227.536 51.336 227.968 51.528C228.416 51.72 229.128 51.912 230.104 52.104C231.176 52.344 232.048 52.584 232.72 52.824C233.392 53.064 233.976 53.456 234.472 54C234.968 54.544 235.216 55.28 235.216 56.208C235.216 58.928 233.288 60.288 229.432 60.288Z" fill="white"/>
<defs>
<clipPath id="clip0">
<rect x="64" y="32" width="40" height="40" rx="8" fill="white"/>
</clipPath>
</defs>
</svg>
