<svg width="282" height="104" viewBox="0 0 282 104" fill="none" xmlns="http://www.w3.org/2000/svg">
<rect width="282" height="104" rx="8" fill="#9871F5"/>
<path d="M129.608 43.536H142.544V46.488H133.088V50.112H141.488V53.064H133.088V57.048H142.688V60H129.608V43.536ZM150.752 60.288C148.992 60.288 147.608 59.928 146.6 59.208C145.608 58.472 145.112 57.496 145.112 56.28L145.136 55.992H148.328V56.16C148.344 56.72 148.592 57.128 149.072 57.384C149.568 57.624 150.168 57.744 150.872 57.744C151.528 57.744 152.088 57.656 152.552 57.48C153.016 57.304 153.248 57.016 153.248 56.616C153.248 56.168 153.008 55.832 152.528 55.608C152.064 55.384 151.328 55.16 150.32 54.936C149.28 54.696 148.432 54.456 147.776 54.216C147.12 53.96 146.552 53.568 146.072 53.04C145.592 52.512 145.352 51.808 145.352 50.928C145.352 49.696 145.864 48.752 146.888 48.096C147.928 47.424 149.264 47.088 150.896 47.088C152.416 47.088 153.672 47.4 154.664 48.024C155.656 48.632 156.152 49.464 156.152 50.52L156.128 51.072H152.936V50.928C152.936 50.512 152.736 50.192 152.336 49.968C151.952 49.744 151.432 49.632 150.776 49.632C150.12 49.632 149.6 49.72 149.216 49.896C148.832 50.072 148.64 50.32 148.64 50.64C148.64 51.04 148.856 51.336 149.288 51.528C149.736 51.72 150.448 51.912 151.424 52.104C152.496 52.344 153.368 52.584 154.04 52.824C154.712 53.064 155.296 53.456 155.792 54C156.288 54.544 156.536 55.28 156.536 56.208C156.536 58.928 154.608 60.288 150.752 60.288ZM162.432 60.288C161.248 60.288 160.4 59.968 159.888 59.328C159.376 58.688 159.12 57.88 159.12 56.904V50.064H157.608V47.376H159.192L159.744 43.824H162.408V47.376H164.592V50.064H162.408V56.568C162.408 57.256 162.752 57.6 163.44 57.6H164.592V59.904C164.32 60 163.976 60.088 163.56 60.168C163.16 60.248 162.784 60.288 162.432 60.288ZM171.144 60.288C169.848 60.288 168.824 59.936 168.072 59.232C167.336 58.528 166.968 57.4 166.968 55.848V47.376H170.256V55.152C170.256 55.936 170.44 56.504 170.808 56.856C171.176 57.208 171.72 57.384 172.44 57.384C173.176 57.384 173.784 57.128 174.264 56.616C174.76 56.088 175.008 55.44 175.008 54.672V47.376H178.296V60H175.488L175.248 58.344H175.08C174.056 59.64 172.744 60.288 171.144 60.288ZM185.936 60.288C184.336 60.288 183.096 59.744 182.216 58.656C181.336 57.552 180.896 55.888 180.896 53.664C180.896 51.488 181.336 49.848 182.216 48.744C183.112 47.64 184.296 47.088 185.768 47.088C186.616 47.088 187.36 47.24 188 47.544C188.656 47.848 189.168 48.28 189.536 48.84H189.68V42.648H192.968V60H190.16L189.944 58.344H189.776C189.376 58.984 188.84 59.472 188.168 59.808C187.496 60.128 186.752 60.288 185.936 60.288ZM186.992 57.432C188.784 57.432 189.68 56.256 189.68 53.904V53.52C189.68 51.136 188.784 49.944 186.992 49.944C186.016 49.944 185.32 50.24 184.904 50.832C184.488 51.408 184.28 52.288 184.28 53.472V53.904C184.28 55.088 184.488 55.976 184.904 56.568C185.32 57.144 186.016 57.432 186.992 57.432ZM199.288 60.288C198.312 60.288 197.416 60.032 196.6 59.52C195.784 59.008 195.376 58.08 195.376 56.736C195.376 55.12 196.04 53.976 197.368 53.304C198.696 52.616 200.576 52.272 203.008 52.272V51.384C203.008 50.824 202.88 50.392 202.624 50.088C202.384 49.784 201.92 49.632 201.232 49.632C200.496 49.632 199.968 49.744 199.648 49.968C199.344 50.192 199.192 50.456 199.192 50.76V51.12H196.024C196.008 51.024 196 50.848 196 50.592C196 49.536 196.464 48.688 197.392 48.048C198.336 47.408 199.584 47.088 201.136 47.088C202.864 47.088 204.152 47.44 205 48.144C205.864 48.848 206.296 49.864 206.296 51.192V56.76C206.296 57.048 206.376 57.264 206.536 57.408C206.696 57.536 206.896 57.6 207.136 57.6H207.808V59.904C207.296 60.16 206.664 60.288 205.912 60.288C205.256 60.288 204.704 60.144 204.256 59.856C203.824 59.568 203.528 59.16 203.368 58.632H203.224C202.76 59.176 202.224 59.592 201.616 59.88C201.024 60.152 200.248 60.288 199.288 60.288ZM200.32 57.696C201.248 57.696 201.928 57.44 202.36 56.928C202.792 56.4 203.008 55.704 203.008 54.84V54.456C200.144 54.456 198.712 55.096 198.712 56.376C198.712 56.776 198.84 57.096 199.096 57.336C199.368 57.576 199.776 57.696 200.32 57.696ZM209.72 47.376H212.528L212.792 49.416H212.96C213.232 48.696 213.584 48.128 214.016 47.712C214.448 47.296 215.016 47.088 215.72 47.088C216.184 47.088 216.6 47.16 216.968 47.304V50.376H216.056C214.984 50.376 214.208 50.672 213.728 51.264C213.248 51.84 213.008 52.72 213.008 53.904V60H209.72V47.376Z" fill="white"/>
<path d="M69 38H78C79.5913 38 81.1174 38.6556 82.2426 39.8224C83.3679 40.9893 84 42.572 84 44.2222V66C84 64.7623 83.5259 63.5753 82.682 62.7002C81.8381 61.825 80.6935 61.3333 79.5 61.3333H69V38Z" stroke="white" stroke-width="3" stroke-linecap="round" stroke-linejoin="round"/>
<path d="M99 38H90C88.4087 38 86.8826 38.6556 85.7574 39.8224C84.6321 40.9893 84 42.572 84 44.2222V66C84 64.7623 84.4741 63.5753 85.318 62.7002C86.1619 61.825 87.3065 61.3333 88.5 61.3333H99V38Z" stroke="white" stroke-width="3" stroke-linecap="round" stroke-linejoin="round"/>
</svg>
