<svg width="154" height="40" viewBox="0 0 154 40" fill="none" xmlns="http://www.w3.org/2000/svg">
<path d="M65.608 11.536H78.544V14.488H69.088V18.112H77.488V21.064H69.088V25.048H78.688V28H65.608V11.536ZM86.7518 28.288C84.9918 28.288 83.6078 27.928 82.5998 27.208C81.6078 26.472 81.1118 25.496 81.1118 24.28L81.1358 23.992H84.3278V24.16C84.3438 24.72 84.5918 25.128 85.0718 25.384C85.5678 25.624 86.1678 25.744 86.8718 25.744C87.5278 25.744 88.0878 25.656 88.5518 25.48C89.0158 25.304 89.2478 25.016 89.2478 24.616C89.2478 24.168 89.0078 23.832 88.5278 23.608C88.0638 23.384 87.3278 23.16 86.3198 22.936C85.2798 22.696 84.4318 22.456 83.7758 22.216C83.1198 21.96 82.5518 21.568 82.0718 21.04C81.5918 20.512 81.3518 19.808 81.3518 18.928C81.3518 17.696 81.8638 16.752 82.8878 16.096C83.9278 15.424 85.2638 15.088 86.8958 15.088C88.4158 15.088 89.6718 15.4 90.6638 16.024C91.6558 16.632 92.1518 17.464 92.1518 18.52L92.1278 19.072H88.9358V18.928C88.9358 18.512 88.7358 18.192 88.3358 17.968C87.9518 17.744 87.4318 17.632 86.7758 17.632C86.1198 17.632 85.5998 17.72 85.2158 17.896C84.8318 18.072 84.6398 18.32 84.6398 18.64C84.6398 19.04 84.8558 19.336 85.2878 19.528C85.7358 19.72 86.4478 19.912 87.4238 20.104C88.4958 20.344 89.3678 20.584 90.0398 20.824C90.7118 21.064 91.2958 21.456 91.7918 22C92.2878 22.544 92.5358 23.28 92.5358 24.208C92.5358 26.928 90.6078 28.288 86.7518 28.288ZM98.4318 28.288C97.2478 28.288 96.3998 27.968 95.8878 27.328C95.3758 26.688 95.1198 25.88 95.1198 24.904V18.064H93.6078V15.376H95.1918L95.7438 11.824H98.4078V15.376H100.592V18.064H98.4078V24.568C98.4078 25.256 98.7518 25.6 99.4398 25.6H100.592V27.904C100.32 28 99.9758 28.088 99.5598 28.168C99.1598 28.248 98.7838 28.288 98.4318 28.288ZM107.144 28.288C105.848 28.288 104.824 27.936 104.072 27.232C103.336 26.528 102.968 25.4 102.968 23.848V15.376H106.256V23.152C106.256 23.936 106.44 24.504 106.808 24.856C107.176 25.208 107.72 25.384 108.44 25.384C109.176 25.384 109.784 25.128 110.264 24.616C110.76 24.088 111.008 23.44 111.008 22.672V15.376H114.296V28H111.488L111.248 26.344H111.08C110.056 27.64 108.744 28.288 107.144 28.288ZM121.936 28.288C120.336 28.288 119.096 27.744 118.216 26.656C117.336 25.552 116.896 23.888 116.896 21.664C116.896 19.488 117.336 17.848 118.216 16.744C119.112 15.64 120.296 15.088 121.768 15.088C122.616 15.088 123.36 15.24 124 15.544C124.656 15.848 125.168 16.28 125.536 16.84H125.68V10.648H128.968V28H126.16L125.944 26.344H125.776C125.376 26.984 124.84 27.472 124.168 27.808C123.496 28.128 122.752 28.288 121.936 28.288ZM122.992 25.432C124.784 25.432 125.68 24.256 125.68 21.904V21.52C125.68 19.136 124.784 17.944 122.992 17.944C122.016 17.944 121.32 18.24 120.904 18.832C120.488 19.408 120.28 20.288 120.28 21.472V21.904C120.28 23.088 120.488 23.976 120.904 24.568C121.32 25.144 122.016 25.432 122.992 25.432ZM135.288 28.288C134.312 28.288 133.416 28.032 132.6 27.52C131.784 27.008 131.376 26.08 131.376 24.736C131.376 23.12 132.04 21.976 133.368 21.304C134.696 20.616 136.576 20.272 139.008 20.272V19.384C139.008 18.824 138.88 18.392 138.624 18.088C138.384 17.784 137.92 17.632 137.232 17.632C136.496 17.632 135.968 17.744 135.648 17.968C135.344 18.192 135.192 18.456 135.192 18.76V19.12H132.024C132.008 19.024 132 18.848 132 18.592C132 17.536 132.464 16.688 133.392 16.048C134.336 15.408 135.584 15.088 137.136 15.088C138.864 15.088 140.152 15.44 141 16.144C141.864 16.848 142.296 17.864 142.296 19.192V24.76C142.296 25.048 142.376 25.264 142.536 25.408C142.696 25.536 142.896 25.6 143.136 25.6H143.808V27.904C143.296 28.16 142.664 28.288 141.912 28.288C141.256 28.288 140.704 28.144 140.256 27.856C139.824 27.568 139.528 27.16 139.368 26.632H139.224C138.76 27.176 138.224 27.592 137.616 27.88C137.024 28.152 136.248 28.288 135.288 28.288ZM136.32 25.696C137.248 25.696 137.928 25.44 138.36 24.928C138.792 24.4 139.008 23.704 139.008 22.84V22.456C136.144 22.456 134.712 23.096 134.712 24.376C134.712 24.776 134.84 25.096 135.096 25.336C135.368 25.576 135.776 25.696 136.32 25.696ZM145.72 15.376H148.528L148.792 17.416H148.96C149.232 16.696 149.584 16.128 150.016 15.712C150.448 15.296 151.016 15.088 151.72 15.088C152.184 15.088 152.6 15.16 152.968 15.304V18.376H152.056C150.984 18.376 150.208 18.672 149.728 19.264C149.248 19.84 149.008 20.72 149.008 21.904V28H145.72V15.376Z" fill="white"/>
<path d="M5 6H14C15.5913 6 17.1174 6.65555 18.2426 7.82245C19.3679 8.98934 20 10.572 20 12.2222V34C20 32.7623 19.5259 31.5753 18.682 30.7002C17.8381 29.825 16.6935 29.3333 15.5 29.3333H5V6Z" stroke="white" stroke-width="3" stroke-linecap="round" stroke-linejoin="round"/>
<path d="M35 6H26C24.4087 6 22.8826 6.65555 21.7574 7.82245C20.6321 8.98934 20 10.572 20 12.2222V34C20 32.7623 20.4741 31.5753 21.318 30.7002C22.1619 29.825 23.3065 29.3333 24.5 29.3333H35V6Z" stroke="white" stroke-width="3" stroke-linecap="round" stroke-linejoin="round"/>
</svg>
